arrow video dvdrip of blood feast 2 all u can eat. complete and uncut. please seed and enjoy



General
Complete name                            : C:Blood Feast 2 All U Can Eat (2002) dvdripBlood Feast 2 All U Can Eat (2002) dvdrip.mp4
Format                                   : MPEG-4
Format profile                           : Base Media / Version 2
Codec ID                                 : mp42
File size                                : 1.02 GiB
Duration                                 : 1h 39mn
Overall bit rate mode                    : Variable
Overall bit rate                         : 1 464 Kbps
Encoded date                             : UTC 2012-08-25 16:14:41
Tagged date                              : UTC 2012-08-25 16:33:01
Writing application                      : HandBrake 0.9.6 2012022800

Video
ID                                       : 1
Format                                   : AVC
Format/Info                              : Advanced Video Codec
Format profile                           : Main@L3.0
Format settings, CABAC                   : Yes
Format settings, ReFrames                : 4 frames
Codec ID                                 : avc1
Codec ID/Info                            : Advanced Video Coding
Duration                                 : 1h 39mn
Bit rate mode                            : Variable
Bit rate                                 : 1 347 Kbps
Width                                    : 692 pixels
Height                                   : 408 pixels
Display aspect ratio                     : 16:9
Original display aspect ratio            : 16:9
Frame rate mode                          : Constant
Frame rate                               : 25.000 fps
Color space                              : YUV
Chroma subsampling                       : 4:2:0
Bit depth                                : 8 bits
Scan type                                : Progressive
Bits/(Pixel*Frame)                       : 0.191
Stream size                              : 958 MiB (92%)
Writing library                          : x264 core 120
Audio
ID                                       : 2
Format                                   : AAC
Format/Info                              : Advanced Audio Codec
Format profile                           : LC
Codec ID                                 : 40
Duration                                 : 1h 39mn
Bit rate mode                            : Variable
Bit rate                                 : 112 Kbps
Maximum bit rate                         : 146 Kbps
Channel(s)                               : 2 channels
Channel positions                        : Front: L R
Sampling rate                            : 48.0 KHz
Compression mode                         : Lossy
Stream size                              : 79.6 MiB (8%)
Language                                 : English
Encoded date                             : UTC 2012-08-25 16:14:41
Tagged date                              : UTC 2012-08-25 16:33:00

Text
ID                                       : 3
Format                                   : Apple text
Codec ID                                 : text
Duration                                 : 1h 39mn
Bit rate mode                            : Variable
Bit rate                                 : 0
Stream size                              : 279 Bytes (0%)
Encoded date                             : UTC 2012-08-25 16:14:41
Tagged date                              : UTC 2012-08-25 16:33:01
